Coordinates
version=1
nRows=8
nColumns=36
inDegrees=yes

Units are S.I. units (second, meters, Newtons, ...)
If the header above contains a line with 'inDegrees', this indicates whether rotational values are in degrees (yes) or radians (no).

endheader
time	pelvis_tilt	pelvis_list	pelvis_rotation	pelvis_tx	pelvis_ty	pelvis_tz	hip_flexion_r	hip_adduction_r	hip_rotation_r	knee_angle_r	knee_angle_r_beta	ankle_angle_r	subtalar_angle_r	mtp_angle_r	hip_flexion_l	hip_adduction_l	hip_rotation_l	knee_angle_l	knee_angle_l_beta	ankle_angle_l	subtalar_angle_l	mtp_angle_l	lumbar_extension	lumbar_bending	lumbar_rotation	arm_flex_r	arm_add_r	arm_rot_r	elbow_flex_r	pro_sup_r	arm_flex_l	arm_add_l	arm_rot_l	elbow_flex_l	pro_sup_l
      4.25000000	    -20.81984535	     -1.85269581	     10.05044409	      1.39974913	      0.81506108	     -0.29771372	     55.43258995	     -2.17276715	      2.48893776	     72.53785415	      1.26602439	     39.14024573	    -11.19807079	     -7.49999987	     58.14577888	     -4.37991918	      0.84669455	     72.71703997	      1.26915177	     32.31224624	     -5.11098345	     -7.49999987	     -3.21117607	     -0.07382088	      2.80813176	      1.07394515	    -17.18964019	      5.49305740	     89.68937939	     85.29191742	      3.02970619	    -21.53260271	     12.83151764	     84.58115661	     92.10976418
      4.26666670	    -21.30184941	     -1.91197622	     10.05102727	      1.40388698	      0.81832663	     -0.29497798	     54.88906499	     -2.21536653	      2.43466159	     70.76422279	      1.23506868	     38.17008383	    -11.36429791	     -7.49999987	     57.30235508	     -4.42334749	      0.78290191	     70.69762993	      1.23390642	     31.43551328	     -4.70072051	     -7.49999987	     -2.33634932	     -0.12056605	      2.69003531	      0.03740750	    -18.44214767	      6.02063531	     90.61781107	     83.92200814	      2.67280079	    -21.92901801	     13.30655988	     86.86302972	     90.64325945
      4.28333330	    -21.40141993	     -1.89844205	     10.04289008	      1.40505965	      0.83345755	     -0.29485100	     53.56289418	     -2.37635145	      2.19402136	     68.19025431	      1.19014446	     36.84775111	    -11.49296385	     -7.49999987	     55.57066931	     -4.48330905	      0.60647590	     67.81957158	      1.18367482	     30.59333054	     -4.19980346	     -7.49999987	     -2.33663451	     -0.07823652	      2.29549226	     -0.13692332	    -19.29517122	      6.25204144	     90.04795893	     81.09870505	      2.61176257	    -22.00110777	     13.73810818	     87.47094200	     87.72990696
      4.30000000	    -21.23806293	     -1.80026641	      9.95716072	      1.40939115	      0.84292729	     -0.29701213	     51.87090026	     -2.59788221	      1.97057272	     65.58453382	      1.14466605	     35.30802093	    -11.76699904	     -7.49999987	     53.45360616	     -4.56802133	      0.29079042	     64.89893304	      1.13270006	     29.32375536	     -3.89552300	     -7.49999987	     -2.43512137	      0.06650172	      2.25156489	     -0.87812938	    -19.94944764	      5.55744367	     90.21185827	     82.79027279	      2.22639036	    -21.58738988	     12.90263126	     88.49205044	     91.93836554
      4.31666670	    -21.04005105	     -1.64427042	      9.82475901	      1.41431705	      0.85687376	     -0.30105457	     49.94405052	     -2.94969000	      1.69157632	     62.66491905	      1.09370916	     33.61182215	    -11.92062417	     -7.49999987	     51.03358275	     -4.52450939	     -0.12817632	     61.51358532	      1.07361460	     28.22478626	     -3.31858492	     -7.49999987	     -2.47611593	      0.17650646	      2.22060245	     -2.21890887	    -21.11439728	      5.37310988	     91.39659462	     82.96150327	      2.16002167	    -21.25256586	     13.10083229	     89.21878639	     93.20616354
      4.33333330	    -20.67915436	     -1.40482431	      9.57341396	      1.42218772	      0.86509992	     -0.30693666	     47.64868342	     -3.41808512	      1.33688577	     59.45444519	      1.03767582	     31.99893604	    -11.92236973	     -7.49999987	     48.18700407	     -4.39612499	     -0.62430718	     57.92489231	      1.01098009	     27.05174874	     -2.90878414	     -7.49999987	     -2.38909890	      0.46886509	      2.10308643	     -3.53174686	    -22.19177735	      5.13715681	     92.13866223	     82.94581928	      1.51365758	    -20.55157802	     12.56097774	     89.34363227	     93.23171857
      4.35000000	    -20.02092924	     -1.31212979	      9.49031493	      1.42729220	      0.87758307	     -0.30304201	     44.81468655	     -3.65552504	      0.79193976	     55.87397036	      0.97518475	     30.18444716	    -12.14444625	     -7.49999987	     44.92194568	     -4.44823583	     -1.07723936	     54.04733455	      0.94330394	     25.62570678	     -2.28625310	     -7.49999987	     -2.55024512	      0.70626580	      2.05245881	     -4.79851741	    -22.64329885	      4.65284495	     92.36233539	     82.88423979	      1.15157609	    -20.04607271	     11.79797083	     89.12754511	     93.33226240
      4.36666670	    -19.33526134	     -1.27327130	      9.31147987	      1.43075909	      0.88871481	     -0.30033501	     42.26981720	     -3.58972798	      0.40313892	     52.74917508	      0.92064678	     28.21114960	    -12.80898049	     -7.49999987	     41.87325096	     -4.67327884	     -1.56577827	     50.42852136	      0.88014373	     24.36813327	     -1.94829962	     -7.49999987	     -2.95088111	      1.03776840	      2.35222528	     -5.92021306	    -23.28574673	      4.93532019	     94.15624621	     82.95049188	      0.65321811	    -20.27352663	     11.52540714	     89.85469376	     93.52492513
